<svg id="Layer_1" data-name="Layer 1" xmlns="http://www.w3.org/2000/svg" viewBox="0 0 768 640"><defs><style>.cls-1{fill:#818181;}</style></defs><path class="cls-1" d="M736,64H32A32,32,0,0,0,0,96V256a32,32,0,0,0,32,32H64V672a32,32,0,0,0,32,32H672a32,32,0,0,0,32-32V288h32a32,32,0,0,0,32-32V96A32,32,0,0,0,736,64ZM640,640H128V489.39H299.57v56.42a13,13,0,0,0,19.54,11.27l154.44-89.16a13,13,0,0,0,0-22.56L319.11,356.2a13,13,0,0,0-19.54,11.28v56.41H128V288H640Zm64-416H64V128H704Z" transform="translate(0 -64)"/></svg>