<svg width="259" height="3" viewBox="0 0 259 3" fill="none" xmlns="http://www.w3.org/2000/svg">
<path d="M10.5 1.10471C10.5 1.65698 10.0523 2.10468 9.5 2.10468C8.94772 2.10468 8.5 1.65698 8.5 1.10471C8.5 0.55244 8.94772 0.104736 9.5 0.104736C10.0523 0.104736 10.5 0.55244 10.5 1.10471Z" fill="black"/>
<path d="M2.5 1.10472C2.5 1.65699 2.05228 2.10469 1.5 2.10469C0.947715 2.10469 0.5 1.65699 0.5 1.10472C0.5 0.552447 0.947715 0.104744 1.5 0.104744C2.05228 0.104744 2.5 0.552447 2.5 1.10472Z" fill="black"/>
<path d="M26.5 1.10471C26.5 1.65698 26.0523 2.10468 25.5 2.10468C24.9477 2.10468 24.5 1.65698 24.5 1.10471C24.5 0.55244 24.9477 0.104736 25.5 0.104736C26.0523 0.104736 26.5 0.55244 26.5 1.10471Z" fill="black"/>
<path d="M18.5 1.10471C18.5 1.65698 18.0523 2.10468 17.5 2.10468C16.9477 2.10468 16.5 1.65698 16.5 1.10471C16.5 0.55244 16.9477 0.104736 17.5 0.104736C18.0523 0.104736 18.5 0.55244 18.5 1.10471Z" fill="black"/>
<path d="M34.5 1.10471C34.5 1.65698 34.0523 2.10468 33.5 2.10468C32.9477 2.10468 32.5 1.65698 32.5 1.10471C32.5 0.55244 32.9477 0.104736 33.5 0.104736C34.0523 0.104736 34.5 0.55244 34.5 1.10471Z" fill="black"/>
<path d="M42.5 1.10471C42.5 1.65698 42.0523 2.10468 41.5 2.10468C40.9477 2.10468 40.5 1.65698 40.5 1.10471C40.5 0.55244 40.9477 0.104736 41.5 0.104736C42.0523 0.104736 42.5 0.55244 42.5 1.10471Z" fill="black"/>
<path d="M58.5 1.10471C58.5 1.65698 58.0523 2.10468 57.5 2.10468C56.9477 2.10468 56.5 1.65698 56.5 1.10471C56.5 0.55244 56.9477 0.104736 57.5 0.104736C58.0523 0.104736 58.5 0.55244 58.5 1.10471Z" fill="black"/>
<path d="M50.5 1.10471C50.5 1.65698 50.0523 2.10468 49.5 2.10468C48.9477 2.10468 48.5 1.65698 48.5 1.10471C48.5 0.55244 48.9477 0.104736 49.5 0.104736C50.0523 0.104736 50.5 0.55244 50.5 1.10471Z" fill="black"/>
<path d="M66.5 1.10471C66.5 1.65698 66.0523 2.10468 65.5 2.10468C64.9477 2.10468 64.5 1.65698 64.5 1.10471C64.5 0.55244 64.9477 0.104736 65.5 0.104736C66.0523 0.104736 66.5 0.55244 66.5 1.10471Z" fill="black"/>
<path d="M74.5 1.10471C74.5 1.65698 74.0523 2.10468 73.5 2.10468C72.9477 2.10468 72.5 1.65698 72.5 1.10471C72.5 0.55244 72.9477 0.104736 73.5 0.104736C74.0523 0.104736 74.5 0.55244 74.5 1.10471Z" fill="black"/>
<path d="M90.5 1.10471C90.5 1.65698 90.0523 2.10468 89.5 2.10468C88.9477 2.10468 88.5 1.65698 88.5 1.10471C88.5 0.55244 88.9477 0.104736 89.5 0.104736C90.0523 0.104736 90.5 0.55244 90.5 1.10471Z" fill="black"/>
<path d="M82.5 1.10471C82.5 1.65698 82.0523 2.10468 81.5 2.10468C80.9477 2.10468 80.5 1.65698 80.5 1.10471C80.5 0.55244 80.9477 0.104736 81.5 0.104736C82.0523 0.104736 82.5 0.55244 82.5 1.10471Z" fill="black"/>
<path d="M98.5 1.10471C98.5 1.65698 98.0523 2.10468 97.5 2.10468C96.9477 2.10468 96.5 1.65698 96.5 1.10471C96.5 0.55244 96.9477 0.104736 97.5 0.104736C98.0523 0.104736 98.5 0.55244 98.5 1.10471Z" fill="black"/>
<path d="M106.5 1.10471C106.5 1.65698 106.052 2.10468 105.5 2.10468C104.948 2.10468 104.5 1.65698 104.5 1.10471C104.5 0.55244 104.948 0.104736 105.5 0.104736C106.052 0.104736 106.5 0.55244 106.5 1.10471Z" fill="black"/>
<path d="M122.5 1.10471C122.5 1.65698 122.052 2.10468 121.5 2.10468C120.948 2.10468 120.5 1.65698 120.5 1.10471C120.5 0.55244 120.948 0.104736 121.5 0.104736C122.052 0.104736 122.5 0.55244 122.5 1.10471Z" fill="black"/>
<path d="M114.5 1.10471C114.5 1.65698 114.052 2.10468 113.5 2.10468C112.948 2.10468 112.5 1.65698 112.5 1.10471C112.5 0.55244 112.948 0.104736 113.5 0.104736C114.052 0.104736 114.5 0.55244 114.5 1.10471Z" fill="black"/>
<path d="M130.5 1.10471C130.5 1.65698 130.052 2.10468 129.5 2.10468C128.948 2.10468 128.5 1.65698 128.5 1.10471C128.5 0.55244 128.948 0.104736 129.5 0.104736C130.052 0.104736 130.5 0.55244 130.5 1.10471Z" fill="black"/>
<path d="M138.5 1.10471C138.5 1.65698 138.052 2.10468 137.5 2.10468C136.948 2.10468 136.5 1.65698 136.5 1.10471C136.5 0.55244 136.948 0.104736 137.5 0.104736C138.052 0.104736 138.5 0.55244 138.5 1.10471Z" fill="black"/>
<path d="M154.5 1.10471C154.5 1.65698 154.052 2.10468 153.5 2.10468C152.948 2.10468 152.5 1.65698 152.5 1.10471C152.5 0.55244 152.948 0.104736 153.5 0.104736C154.052 0.104736 154.5 0.55244 154.5 1.10471Z" fill="black"/>
<path d="M146.5 1.10471C146.5 1.65698 146.052 2.10468 145.5 2.10468C144.948 2.10468 144.5 1.65698 144.5 1.10471C144.5 0.55244 144.948 0.104736 145.5 0.104736C146.052 0.104736 146.5 0.55244 146.5 1.10471Z" fill="black"/>
<path d="M162.5 1.10471C162.5 1.65698 162.052 2.10468 161.5 2.10468C160.948 2.10468 160.5 1.65698 160.5 1.10471C160.5 0.55244 160.948 0.104736 161.5 0.104736C162.052 0.104736 162.5 0.55244 162.5 1.10471Z" fill="black"/>
<path d="M170.5 1.10471C170.5 1.65698 170.052 2.10468 169.5 2.10468C168.948 2.10468 168.5 1.65698 168.5 1.10471C168.5 0.55244 168.948 0.104736 169.5 0.104736C170.052 0.104736 170.5 0.55244 170.5 1.10471Z" fill="black"/>
<path d="M186.5 1.10471C186.5 1.65698 186.052 2.10468 185.5 2.10468C184.948 2.10468 184.5 1.65698 184.5 1.10471C184.5 0.55244 184.948 0.104736 185.5 0.104736C186.052 0.104736 186.5 0.55244 186.5 1.10471Z" fill="black"/>
<path d="M178.5 1.10471C178.5 1.65698 178.052 2.10468 177.5 2.10468C176.948 2.10468 176.5 1.65698 176.5 1.10471C176.5 0.55244 176.948 0.104736 177.5 0.104736C178.052 0.104736 178.5 0.55244 178.5 1.10471Z" fill="black"/>
<path d="M194.5 1.10471C194.5 1.65698 194.052 2.10468 193.5 2.10468C192.948 2.10468 192.5 1.65698 192.5 1.10471C192.5 0.55244 192.948 0.104736 193.5 0.104736C194.052 0.104736 194.5 0.55244 194.5 1.10471Z" fill="black"/>
<path d="M202.5 1.10471C202.5 1.65698 202.052 2.10468 201.5 2.10468C200.948 2.10468 200.5 1.65698 200.5 1.10471C200.5 0.55244 200.948 0.104736 201.5 0.104736C202.052 0.104736 202.5 0.55244 202.5 1.10471Z" fill="black"/>
<path d="M218.5 1.10471C218.5 1.65698 218.052 2.10468 217.5 2.10468C216.948 2.10468 216.5 1.65698 216.5 1.10471C216.5 0.55244 216.948 0.104736 217.5 0.104736C218.052 0.104736 218.5 0.55244 218.5 1.10471Z" fill="black"/>
<path d="M210.5 1.10471C210.5 1.65698 210.052 2.10468 209.5 2.10468C208.948 2.10468 208.5 1.65698 208.5 1.10471C208.5 0.55244 208.948 0.104736 209.5 0.104736C210.052 0.104736 210.5 0.55244 210.5 1.10471Z" fill="black"/>
<path d="M226.5 1.10471C226.5 1.65698 226.052 2.10468 225.5 2.10468C224.948 2.10468 224.5 1.65698 224.5 1.10471C224.5 0.55244 224.948 0.104736 225.5 0.104736C226.052 0.104736 226.5 0.55244 226.5 1.10471Z" fill="black"/>
<path d="M234.5 1.10471C234.5 1.65698 234.052 2.10468 233.5 2.10468C232.948 2.10468 232.5 1.65698 232.5 1.10471C232.5 0.55244 232.948 0.104736 233.5 0.104736C234.052 0.104736 234.5 0.55244 234.5 1.10471Z" fill="black"/>
<path d="M250.5 1.10471C250.5 1.65698 250.052 2.10468 249.5 2.10468C248.948 2.10468 248.5 1.65698 248.5 1.10471C248.5 0.55244 248.948 0.104736 249.5 0.104736C250.052 0.104736 250.5 0.55244 250.5 1.10471Z" fill="black"/>
<path d="M242.5 1.10471C242.5 1.65698 242.052 2.10468 241.5 2.10468C240.948 2.10468 240.5 1.65698 240.5 1.10471C240.5 0.55244 240.948 0.104736 241.5 0.104736C242.052 0.104736 242.5 0.55244 242.5 1.10471Z" fill="black"/>
<path d="M258.5 1.10471C258.5 1.65698 258.052 2.10468 257.5 2.10468C256.948 2.10468 256.5 1.65698 256.5 1.10471C256.5 0.55244 256.948 0.104736 257.5 0.104736C258.052 0.104736 258.5 0.55244 258.5 1.10471Z" fill="black"/>
</svg>
