<svg width="80" height="63" viewBox="0 0 80 63" fill="none" xmlns="http://www.w3.org/2000/svg">
<path d="M72.9688 0.901367H7.03125C3.15906 0.901367 0 4.08811 0 8.00196V55.3392C0 59.2398 3.145 62.4398 7.03125 62.4398H72.9688C76.8313 62.4398 80 59.2638 80 55.3392V8.00196C80 4.10137 76.855 0.901367 72.9688 0.901367ZM71.9978 5.6351L40.1491 37.7981L8.02484 5.6351H71.9978ZM4.6875 54.359V8.95959L27.2623 31.5616L4.6875 54.359ZM8.00203 57.7061L30.5911 34.8943L38.5062 42.8188C39.4225 43.7362 40.9011 43.7332 41.8136 42.8116L49.5312 35.0178L71.998 57.7061H8.00203ZM75.3125 54.3589L52.8458 31.6706L75.3125 8.98216V54.3589Z" fill="url(#paint0_linear)"/>
<defs>
<linearGradient id="paint0_linear" x1="40" y1="0.901367" x2="40" y2="62.4398" gradientUnits="userSpaceOnUse">
<stop stop-color="#F2CA30"/>
<stop offset="1" stop-color="#FF7200"/>
</linearGradient>
</defs>
</svg>
